<svg width="15" height="12" viewBox="0 0 15 12" fill="none" xmlns="http://www.w3.org/2000/svg">
<path d="M0.783667 6.68483C0.405444 6.30661 0.405444 5.69339 0.783668 5.31517L5.31517 0.783667C5.69339 0.405444 6.30661 0.405444 6.68483 0.783668L11.2163 5.31517C11.5946 5.69339 11.5946 6.30661 11.2163 6.68483L6.68483 11.2163C6.30661 11.5946 5.69339 11.5946 5.31517 11.2163L0.783667 6.68483Z" stroke="#ffffff"/>
<path d="M3.43011 7.03839C2.85663 6.4649 2.85663 5.5351 3.43011 4.96161L7.96161 0.430114C8.5351 -0.143372 9.4649 -0.143371 10.0384 0.430115L14.5699 4.96161C15.1434 5.5351 15.1434 6.4649 14.5699 7.03839L10.0384 11.5699C9.4649 12.1434 8.5351 12.1434 7.96161 11.5699L3.43011 7.03839Z" fill="#ffffff"/>
<path d="M9 3.5V8.5M9 8.5L11 6.5M9 8.5L7 6.5" stroke="#7957d5"/>
</svg>
