<svg height="50" width="50" viewBox="0 0 27 30" xmlns="http://www.w3.org/2000/svg" >
  <path d="M23.402,5.571 C25.009,6.499 26,8.215 26,10.071 L26,17.927 C26,19.784 25.009,21.499 23.402,22.427 L16.597,26.356 C14.99,27.284 13.009,27.284 11.402,26.356 L4.597,22.427 C2.99,21.499 2,19.784 2,17.927 L2,10.071 C2,8.215 2.99,6.499 4.597,5.571 L11.402,1.643 C13.009,0.715 14.99,0.715 16.597,1.643 L23.402,5.571 Z M12.313,3.426 L5.686,7.252 C4.642,7.855 4,8.968 4,10.174 L4,17.825 C4,19.03 4.642,20.144 5.686,20.747 L12.313,24.572 C13.357,25.175 14.642,25.175 15.686,24.572 L22.313,20.747 C23.357,20.144 24,19.03 24,17.825 L24,10.174 C24,8.968 23.357,7.855 22.313,7.252 L15.686,3.426 C14.642,2.823 13.357,2.823 12.313,3.426 L12.313,3.426 Z M15.385,5.564 L20.614,8.582 C21.471,9.077 22,9.992 22,10.983 L22,17.02 C22,18.01 21.471,18.925 20.614,19.42 L15.385,22.439 C14.528,22.934 13.471,22.934 12.614,22.439 L7.385,19.42 C6.528,18.925 6,18.01 6,17.02 L6,10.983 C6,9.992 6.528,9.077 7.385,8.582 L12.614,5.564 C13.471,5.069 14.528,5.069 15.385,5.564 L15.385,5.564 Z M11,17.001 L17,17.001 L17,11.001 L11,11.001 L11,17.001 Z" id="Fill-1" fill="#FFFFFF"/>
</svg>